<?xml version="1.0" encoding="iso-8859-1"?>
<!-- Generator: Adobe Illustrator 18.0.0, SVG Export Plug-In . SVG Version: 6.00 Build 0)  -->
<!DOCTYPE svg PUBLIC "-//W3C//DTD SVG 1.1//EN" "http://www.w3.org/Graphics/SVG/1.1/DTD/svg11.dtd">
<svg version="1.1" id="Capa_1" xmlns="http://www.w3.org/2000/svg" xmlns:xlink="http://www.w3.org/1999/xlink" x="0px" y="0px"
	 viewBox="0 0 477.219 477.219" style="enable-background:new 0 0 477.219 477.219;" xml:space="preserve">
<g id="XMLID_36_">
	<path id="XMLID_40_" d="M156.361,72.739c19.903,3.764,39.088-9.328,42.845-29.237c3.755-19.91-9.32-39.096-29.223-42.859
		c-19.917-3.756-39.119,9.335-42.875,29.246C123.338,49.806,136.443,68.976,156.361,72.739z"/>
	<path id="XMLID_39_" d="M453.663,453.328l-20.26-72.69l1.829-60.83c0.141-4.687-0.227-9.375-1.098-13.981l-21.693-114.86
		c-1.56-8.236-6.313-15.514-13.232-20.236c-6.92-4.722-15.445-6.5-23.674-4.949l-13.247,2.509
		c-8.526,1.606-15.586,6.507-20.152,13.131c4.738-0.725,10.724-1.746,15.148-2.097l-57.149,19.989l-65.599-9.367
		c-7.823-1.116-14.806,3.841-16.987,11.151c-15.585-14.167-4.208-3.819-41.846-38.028l-27.586-51.431
		c2.307,2.221,11.316,13.419,13.497,16.084l0.981-5.213c3.241-17.144-8.042-33.664-25.186-36.897l-13.247-2.509
		c-17.113-3.226-33.648,8.003-36.906,25.186l-21.31,112.822c-1.12,5.932-1.188,12.015-0.198,17.971l9.212,55.48L46.58,368.997
		c-3.694,9.718,1.169,20.595,10.895,24.304c9.615,3.687,20.557-1.09,24.297-10.886l30.173-79.156
		c1.169-3.094,1.512-6.446,0.997-9.709l-3.74-23.13l26.09,30.913l-0.904,74.146c-0.125,10.396,8.197,18.929,18.594,19.054
		c0.078,0,0.154,0,0.232,0c10.302,0,18.703-8.276,18.827-18.6l0.981-81.152c0.048-4.52-1.527-8.915-4.441-12.367l-29.564-35.035
		l9.459-50.113l-4.098-3.725c-2.744-2.494-4.707-3.905-5.828-7.474c-1.247-4.052-17.176-55.257-17.971-59.403l28.756,53.621
		c0.809,1.519,1.885,2.782,3.068,3.912c0.078,0.086,0.11,0.194,0.203,0.281l47.566,43.225c6.436,5.853,16.332,5.307,22.162-1.06
		c1.9-2.089,2.882-4.59,3.46-7.162c1.371,0.64,2.741,1.302,4.317,1.527l69.383,9.913c2.309,0.343,4.911,0.14,7.389-0.717
		l60.875-21.297c-3.054,2.081-23.674,13.801-26.992,15.71l16.27,86.116l-34.271,14.37c-5.845,2.446-10.052,7.66-11.222,13.878
		l-13.277,70.483c-1.933,10.217,4.8,20.059,15.008,21.984c1.184,0.225,2.354,0.335,3.506,0.335c8.885,0,16.786-6.312,18.483-15.351
		l11.41-60.525l50.013-20.978l-0.998,47.698c-0.032,1.839,0.203,3.679,0.687,5.455l21.009,75.362
		c2.322,8.321,9.896,13.776,18.125,13.776c1.684,0,3.382-0.225,5.065-0.701C450.593,473.729,456.453,463.349,453.663,453.328z"/>
	<path id="XMLID_38_" d="M364.858,150.564c19.919-3.765,33.026-22.934,29.253-42.852c-3.755-19.91-22.955-33.002-42.874-29.246
		c-19.901,3.764-32.978,22.949-29.221,42.859C325.772,141.236,344.957,154.327,364.858,150.564z"/>
	<path id="XMLID_37_" d="M365.437,437.991h-91.563v-30.056c0-5.064-4.114-9.172-9.18-9.172H22.86v39.228v15.959v23.268h351.756
		v-30.056C374.616,442.099,370.502,437.991,365.437,437.991z"/>
</g>
<g>
</g>
<g>
</g>
<g>
</g>
<g>
</g>
<g>
</g>
<g>
</g>
<g>
</g>
<g>
</g>
<g>
</g>
<g>
</g>
<g>
</g>
<g>
</g>
<g>
</g>
<g>
</g>
<g>
</g>
</svg>
