<?xml version="1.0" encoding="UTF-8" standalone="no"?>
<!-- Created with Inkscape (http://www.inkscape.org/) -->
<svg
   xmlns:dc="http://purl.org/dc/elements/1.1/"
   xmlns:cc="http://creativecommons.org/ns#"
   xmlns:rdf="http://www.w3.org/1999/02/22-rdf-syntax-ns#"
   xmlns:svg="http://www.w3.org/2000/svg"
   xmlns="http://www.w3.org/2000/svg"
   xmlns:sodipodi="http://sodipodi.sourceforge.net/DTD/sodipodi-0.dtd"
   xmlns:inkscape="http://www.inkscape.org/namespaces/inkscape"
   width="650"
   height="250"
   id="svg10026"
   sodipodi:version="0.32"
   inkscape:version="0.46"
   sodipodi:docname="puerto rico.svg"
   inkscape:output_extension="org.inkscape.output.svg.inkscape"
   version="1.0">
  <defs
     id="defs10028">
    <inkscape:perspective
       sodipodi:type="inkscape:persp3d"
       inkscape:vp_x="0 : 526.18109 : 1"
       inkscape:vp_y="0 : 1000 : 0"
       inkscape:vp_z="744.09448 : 526.18109 : 1"
       inkscape:persp3d-origin="372.04724 : 350.78739 : 1"
       id="perspective10034" />
  </defs>
  <sodipodi:namedview
     id="base"
     pagecolor="#ffffff"
     bordercolor="#666666"
     borderopacity="1.0"
     gridtolerance="10000"
     guidetolerance="10"
     objecttolerance="10"
     inkscape:pageopacity="0.0"
     inkscape:pageshadow="2"
     inkscape:zoom="1.3138462"
     inkscape:cx="320.13309"
     inkscape:cy="144.26263"
     inkscape:document-units="px"
     inkscape:current-layer="g10548"
     showgrid="false"
     inkscape:window-width="1244"
     inkscape:window-height="774"
     inkscape:window-x="32"
     inkscape:window-y="-4" />
  <metadata
     id="metadata10031">
    <rdf:RDF>
      <cc:Work
         rdf:about="">
        <dc:format>image/svg+xml</dc:format>
        <dc:type
           rdf:resource="http://purl.org/dc/dcmitype/StillImage" />
      </cc:Work>
    </rdf:RDF>
  </metadata>
  <g
     inkscape:label="Layer 1"
     inkscape:groupmode="layer"
     id="layer1"
     transform="translate(10.549526,-248.4688)">
    <g
       id="g10548">
      <rect
         y="248.4688"
         x="-10.549526"
         height="250"
         width="650"
         id="rect10037"
         style="opacity:1;fill:#ffffff;fill-opacity:1;fill-rule:nonzero;stroke-width:19.89999961999999900;stroke-miterlimit:4;stroke-dasharray:none" />
      <path
         id="path9484"
         d="M 196.43261,305.63561 C 188.03631,305.68246 187.08721,306.49584 184.21381,309.60436 C 181.29411,312.76309 180.83861,314.07765 181.37011,317.47936 C 182.87551,327.11526 182.73051,327.71163 178.49511,330.57311 C 176.26971,332.07656 170.85871,334.83573 166.46381,336.69811 C 157.83251,340.35579 156.31081,342.09345 159.02631,345.19811 C 159.98661,346.29596 161.81201,349.60598 163.08881,352.54185 C 165.15001,357.28142 165.96121,357.99632 170.33881,358.9481 C 174.69941,359.8962 175.44171,360.54382 176.87011,364.66685 C 177.75831,367.23082 178.51671,370.17572 178.52631,371.1981 C 178.53601,372.22051 179.58811,374.00666 180.87011,375.16685 C 183.99551,377.99533 183.78421,380.40173 180.21381,383.2606 C 177.62441,385.33408 177.23041,386.61482 177.08881,393.22935 C 176.97851,398.38604 176.29411,401.62571 174.93261,403.41686 C 173.83251,404.86407 172.93261,407.81847 172.93261,409.97936 C 172.93261,412.14024 172.31461,415.06485 171.55761,416.47936 C 170.80051,417.89387 170.34541,419.16079 170.55761,419.29186 C 170.76971,419.42293 172.54081,420.06741 174.46381,420.69811 C 178.66661,422.07657 178.28511,423.68194 173.40131,425.26061 C 170.04871,426.34434 169.76011,426.88353 169.43261,432.57311 C 169.11541,438.08109 169.31071,438.66686 171.46381,438.66686 C 173.07861,438.66687 173.87011,439.4369 173.87011,441.01061 C 173.87011,442.71992 174.63971,443.35436 176.77631,443.35436 C 178.58921,443.35437 179.68261,442.6921 179.68261,441.60436 C 179.68261,440.64286 179.16731,439.85436 178.52631,439.85436 C 177.88531,439.85435 177.37011,439.06585 177.37011,438.10436 C 177.37011,436.24653 181.47131,435.64727 182.52631,437.35436 C 182.87041,437.91116 185.26741,438.71943 187.87011,439.13561 C 190.47281,439.55177 192.91181,440.65437 193.27631,441.60436 C 194.17281,443.94058 200.68261,443.94309 200.68261,441.60436 C 200.68261,440.64286 200.16311,439.85436 199.52631,439.85436 C 198.88961,439.85435 199.50801,438.51934 200.90131,436.91686 C 202.29471,435.31437 204.39121,434.01061 205.55761,434.01061 C 208.00591,434.01061 208.28101,435.28721 206.27631,437.29186 C 205.18861,438.37963 205.43841,438.66686 207.43261,438.66686 C 208.84281,438.66687 209.99511,438.20802 209.99511,437.63561 C 209.99511,435.86625 213.38491,435.19562 216.43261,436.35436 C 218.35461,437.08513 219.30761,437.05015 219.30761,436.26061 C 219.30761,435.60461 221.22231,436.89801 223.52631,439.13561 C 227.28791,442.78882 229.57611,443.75149 235.80761,444.32311 C 236.85461,444.41915 237.98631,443.38988 238.33881,442.04186 C 238.92151,439.81352 239.50141,439.67847 244.87011,440.41686 C 248.91551,440.97325 250.77631,440.80544 250.77631,439.91686 C 250.77631,439.1241 251.88311,438.9184 253.62011,439.35436 C 255.32821,439.78304 258.01901,439.25724 260.33881,438.04186 C 262.46151,436.92976 264.95441,435.64846 265.90131,435.19811 C 266.84831,434.74775 267.91001,433.21126 268.24511,431.79186 C 269.01561,428.52798 271.18051,427.99694 271.18261,431.07311 C 271.18341,432.34625 272.09061,433.57384 273.21381,433.79186 C 274.55101,434.05143 275.26461,433.4663 275.27631,432.07311 C 275.29151,430.26606 275.46911,430.21147 276.46381,431.69811 C 277.48311,433.22134 277.83861,433.16098 279.24511,431.32311 C 280.27471,429.97762 281.12971,429.65472 281.62011,430.44811 C 282.57411,431.99173 291.42981,436.35436 293.62011,436.35436 C 294.50691,436.35436 296.03361,435.56585 296.99511,434.60436 C 299.33701,432.26247 303.24511,432.36254 303.24511,434.76061 C 303.24511,437.72842 320.1084,436.44133 325.87008,433.04186 C 332.3521,429.21737 339.42974,429.6015 343.83883,434.01061 C 345.76184,435.93359 348.10198,437.51061 349.02633,437.51061 C 349.95067,437.51062 352.09979,438.60477 353.80758,439.94811 C 356.7236,442.24194 357.10354,442.28236 359.80758,440.51061 C 361.3912,439.47297 362.68258,438.18406 362.68258,437.63561 C 362.68261,437.08716 364.26652,435.97346 366.21383,435.16686 C 369.26067,433.90483 370.3041,433.98443 373.77633,435.85436 C 376.12994,437.12183 377.80758,438.94723 377.80758,440.19811 C 377.80758,441.81773 378.40815,442.13628 380.18258,441.57311 C 381.47476,441.16298 384.88123,440.67291 387.77633,440.47936 C 390.67148,440.28584 394.03909,439.25829 395.24508,438.16686 C 397.26621,436.3378 397.6985,436.30175 400.74508,438.01061 L 404.05758,439.88561 L 399.99508,439.57311 C 396.92428,439.33974 395.86991,439.7433 395.55758,441.29186 C 395.19512,443.08859 396.15774,443.35436 403.80758,443.35436 C 410.10461,443.35437 412.91178,442.87204 413.96383,441.60436 C 414.76182,440.64286 416.15204,439.85436 417.05758,439.85436 C 417.96313,439.85435 419.97876,438.98256 421.55758,437.94811 C 423.66539,436.56702 425.78223,436.29291 429.52633,436.85436 C 433.94531,437.51706 435.13139,437.21942 438.27633,434.57311 L 441.90133,431.51061 L 445.43258,434.04186 C 447.83085,435.74962 449.44578,436.19943 450.40133,435.44811 C 451.1801,434.83596 454.42559,433.98616 457.58883,433.57311 C 460.75208,433.16009 464.53373,432.06185 465.99508,431.10436 C 467.45629,430.14686 469.45968,429.35436 470.46383,429.35436 C 471.46799,429.35436 472.59485,428.56585 472.96383,427.60436 C 473.33279,426.64288 474.29435,425.85436 475.08883,425.85436 C 475.88321,425.85435 478.19237,425.01904 480.21383,424.01061 C 483.38709,422.42754 483.87008,421.58727 483.87008,417.69811 C 483.87005,413.52826 484.11623,413.21375 487.02633,413.41686 C 489.87609,413.61576 490.23933,413.14892 491.05758,408.51061 C 491.55418,405.69662 492.84405,402.42894 493.90133,401.26061 C 494.95876,400.09225 495.50759,398.30149 495.12008,397.29186 C 494.71055,396.22464 495.11512,395.17748 496.12008,394.79186 C 497.07087,394.42705 497.87008,393.21792 497.87008,392.0731 C 497.87005,389.49972 501.42856,387.95036 502.68258,389.97935 C 503.41958,391.17177 503.88131,391.13197 505.08883,389.85435 C 506.17417,388.70589 506.23747,388.14729 505.27633,387.79185 C 504.54301,387.52072 504.21797,386.2157 504.55758,384.91685 C 505.17104,382.57099 506.8476,382.50915 512.30758,384.60435 C 513.70239,385.13961 514.18258,384.58643 514.18258,382.3856 C 514.18257,380.03017 514.62082,379.58296 516.49508,380.0731 C 518.11609,380.49702 518.83883,380.10215 518.83883,378.79185 C 518.83884,377.75558 519.35409,376.91685 519.99508,376.91685 C 520.63606,376.91685 521.18258,377.70536 521.18258,378.66685 C 521.18261,380.93575 526.84779,381.01743 527.71383,378.7606 C 528.06354,377.84921 527.77048,375.99892 527.05758,374.66685 C 526.10107,372.87943 526.08677,372.2606 527.05758,372.2606 C 527.78134,372.2606 528.65978,373.29111 528.99508,374.5731 C 529.38945,376.08149 530.57262,376.91685 532.37008,376.91685 C 535.3083,376.91685 536.17116,375.18967 533.71383,374.1981 C 532.9126,373.87479 533.47814,373.5612 534.99508,373.5106 C 537.16199,373.43832 537.6301,372.90431 537.15133,371.0731 C 536.75507,369.55818 537.11736,368.7606 538.18258,368.7606 C 541.15679,368.7606 539.89008,365.31089 536.62008,364.5106 C 534.85733,364.0792 533.0192,363.15064 532.52633,362.4481 C 531.919,361.58259 531.10238,361.85545 530.02633,363.2606 C 528.54679,365.19252 528.39059,365.19947 527.68258,363.35435 C 527.25744,362.24634 527.56431,360.92672 528.40133,360.3856 C 529.54791,359.64439 529.5955,359.20395 528.52633,358.5106 C 527.64874,357.94157 527.50824,356.98865 528.15133,355.9481 C 528.76286,354.9586 528.67986,353.37576 527.93258,351.97935 C 526.91012,350.06906 527.10902,349.33541 529.15133,347.97936 C 532.01214,346.07986 532.61798,342.49939 529.90133,343.54186 C 527.68441,344.39257 527.72932,342.05866 529.96383,339.10436 C 530.9048,337.86011 531.65133,336.08971 531.65133,335.16686 C 531.65131,332.68249 523.45346,334.27492 521.21383,337.19811 C 519.70176,339.17166 518.75687,339.3779 514.96383,338.51061 C 512.51325,337.95026 509.61041,336.67625 508.49508,335.66686 C 507.37986,334.65747 504.4985,333.67989 502.08883,333.51061 C 498.31665,333.2456 497.59553,332.74988 497.02633,329.91686 C 496.47754,327.18476 495.9178,326.7387 493.71383,327.29186 C 492.20191,327.67131 490.87264,327.39346 490.62008,326.63561 C 490.28803,325.63956 489.55218,325.635 487.68258,326.63561 C 485.61378,327.7428 484.9184,327.60087 483.65133,325.79186 C 482.77272,324.53752 479.89652,323.23538 476.90133,322.72936 C 474.03309,322.24478 470.55464,321.08629 469.15133,320.16686 C 467.45665,319.05639 465.2255,318.75425 462.52633,319.26061 C 460.29135,319.67988 455.55993,319.37088 451.99508,318.57311 C 446.78659,317.40747 445.14418,317.41728 443.71383,318.60436 C 441.46067,320.47429 429.85111,319.20295 425.43258,316.60436 C 421.53089,314.30975 418.15769,315.40617 419.18258,318.63561 C 419.75681,320.44472 419.40098,320.97936 417.58883,320.97936 C 416.30157,320.97936 414.84766,320.31185 414.33883,319.51061 C 413.42907,318.07781 413.2223,317.45331 412.93258,315.13561 C 412.66613,313.00453 410.84023,313.93313 409.49508,316.88561 C 407.99493,320.17792 405.61197,320.63016 403.46383,318.04186 C 402.46143,316.83406 402.40366,316.29186 403.30758,316.29186 C 404.02699,316.29186 404.62008,315.7766 404.62008,315.13561 C 404.62005,314.49462 403.58956,313.97936 402.30758,313.97936 C 401.02562,313.97937 399.96383,314.49462 399.96383,315.13561 C 399.96384,316.76176 392.20151,316.60899 389.12008,314.91686 C 387.71989,314.14803 382.88828,313.43016 378.40133,313.32311 C 367.28153,313.05778 358.40833,311.92362 355.65133,310.44811 C 354.08292,309.60869 353.33883,309.6241 353.33883,310.44811 C 353.33881,311.11167 351.62718,311.63561 349.52633,311.63561 C 347.42547,311.63561 344.52781,312.47146 343.08883,313.47936 C 340.71428,315.14259 339.49678,315.15351 329.93258,313.51061 C 324.13673,312.51502 318.85394,311.36303 318.18258,310.94811 C 317.51121,310.53319 316.62327,310.72312 316.21383,311.38561 C 315.70242,312.21308 313.58671,312.20698 309.43261,311.38561 C 304.73881,310.45754 300.75091,310.65051 291.68261,312.16686 C 281.08721,313.93851 279.32651,313.92687 272.68261,312.32311 C 265.01261,310.47171 249.63761,310.12189 245.43261,311.69811 C 241.77581,313.06885 225.72981,310.73611 221.37011,308.19811 C 218.55271,306.558 215.02341,305.94256 207.68261,305.79186 C 202.88211,305.69331 199.23131,305.61999 196.43261,305.63561 z M 534.77633,332.97936 C 534.54183,332.97481 534.3699,333.0108 534.27633,333.10436 C 533.95957,333.4212 533.99001,334.44535 534.33883,335.35436 C 534.97282,337.00635 540.99508,337.74063 540.99508,336.16686 C 540.9951,335.21408 536.41782,333.01123 534.77633,332.97936 z M 112.08881,334.41686 C 110.65131,334.42724 109.22291,334.85854 108.93261,335.72936 C 108.44031,337.20607 111.75741,338.33382 114.18261,337.51061 C 115.01091,337.22946 115.48581,336.42038 115.24511,335.69811 C 114.95621,334.83147 113.52641,334.40648 112.08881,334.41686 z M 543.90133,336.10436 C 542.93983,336.10436 542.15133,336.65087 542.15133,337.29186 C 542.15133,337.93285 542.93984,338.44811 543.90133,338.44811 C 544.86281,338.4481 545.65133,337.93285 545.65133,337.29186 C 545.65131,336.65087 544.86282,336.10436 543.90133,336.10436 z M 549.21383,338.44811 C 548.61072,338.4481 547.79747,338.96337 547.40133,339.60436 C 547.00517,340.24536 547.49572,340.79186 548.49508,340.79186 C 549.4943,340.79186 550.30758,340.24536 550.30758,339.60436 C 550.30758,338.96337 549.81707,338.44811 549.21383,338.44811 z M 585.27633,338.44811 C 584.63532,338.4481 584.12008,338.96337 584.12008,339.60436 C 584.12009,340.24536 584.63534,340.79186 585.27633,340.79186 C 585.9173,340.79186 586.43258,340.24536 586.43258,339.60436 C 586.4326,338.96337 585.91732,338.44811 585.27633,338.44811 z M 538.71383,340.79186 C 538.39132,340.82211 538.09059,340.94636 537.87008,341.16686 C 537.49806,341.53888 537.52174,342.64648 537.90133,343.63561 C 538.79511,345.96476 542.15133,345.99312 542.15133,343.66686 C 542.15133,342.15493 540.11139,340.66077 538.71383,340.79186 z M 591.24508,340.85436 C 590.47168,340.93533 589.93258,341.69499 589.93258,343.10436 C 589.93258,344.38635 590.50151,345.44811 591.21383,345.44811 C 592.06797,345.44811 592.26067,346.85583 591.74508,349.60436 C 591.257,352.20608 591.47885,354.41186 592.33883,355.4481 C 594.33013,357.84736 595.74508,357.47196 595.74508,354.5731 C 595.74508,352.37858 596.23417,352.63055 599.49508,356.4481 L 603.24508,360.8231 L 605.33883,358.2606 C 606.48542,356.84461 607.40133,356.26734 607.40133,356.97935 C 607.40132,357.69136 608.18985,358.2606 609.15133,358.2606 C 610.1128,358.26059 610.90133,357.23229 610.90133,355.97935 C 610.90131,354.29855 611.98556,353.5127 614.99508,352.9481 C 617.97486,352.38909 619.05758,351.58274 619.05758,349.94811 C 619.05756,348.11973 618.32569,347.75717 615.02633,347.97936 C 612.80557,348.12892 610.63256,347.86684 610.18258,347.41686 C 609.73262,346.9669 610.27959,346.60436 611.40133,346.60436 C 612.52309,346.60436 613.22699,345.9681 612.96383,345.16686 C 612.41208,343.48658 606.24508,342.42398 606.24508,344.01061 C 606.2451,345.90093 595.49582,344.75055 593.99508,342.69811 C 593.03773,341.38898 592.01848,340.77339 591.24508,340.85436 z M 580.02633,345.44811 C 579.06485,345.44811 578.27633,345.96337 578.27633,346.60436 C 578.27634,347.24535 579.00849,347.76061 579.90133,347.76061 C 580.7944,347.76062 581.82935,348.60224 582.21383,349.60436 C 582.92239,351.45065 585.27633,350.90062 585.27633,348.88561 C 585.27631,348.28245 584.48782,347.76061 583.52633,347.76061 C 582.56483,347.76062 581.77633,347.24535 581.77633,346.60436 C 581.77633,345.96337 580.98782,345.44811 580.02633,345.44811 z M 537.49508,348.94811 C 536.85406,348.94811 536.30758,349.73663 536.30758,350.69811 C 536.30758,351.65959 536.85409,352.4481 537.49508,352.4481 C 538.13604,352.4481 538.65133,351.65959 538.65133,350.69811 C 538.65134,349.73663 538.13607,348.94811 537.49508,348.94811 z M 531.08883,350.10436 C 530.12737,350.10436 529.33883,350.61961 529.33883,351.2606 C 529.33886,351.90159 530.12734,352.4481 531.08883,352.4481 C 532.05034,352.4481 532.83883,351.90159 532.83883,351.2606 C 532.83885,350.61961 532.05031,350.10436 531.08883,350.10436 z M 5.1513143,387.41685 C 4.6660143,387.51392 4.1138143,387.96694 3.8701143,388.6981 C 3.6297143,389.4192 4.0240143,389.81348 4.7451143,389.5731 C 5.4662143,389.33274 6.0576143,388.74135 6.0576143,388.2606 C 6.0576143,387.57818 5.6367143,387.31978 5.1513143,387.41685 z M 580.18258,388.10435 C 572.79022,388.07273 567.32412,389.27914 560.21383,391.97935 C 554.4449,394.17014 546.98529,396.19096 543.62008,396.47936 C 537.9677,396.96378 537.49508,397.25256 537.49508,400.01061 C 537.49505,405.08304 541.71077,408.38561 548.18258,408.38561 C 551.27579,408.38561 553.80758,407.8946 553.80758,407.32311 C 553.80757,405.74579 560.06518,404.47114 560.55758,405.94811 C 561.50019,408.77613 573.99293,406.30508 575.24508,403.04186 C 575.65029,401.98598 577.54883,401.38561 580.46383,401.38561 C 583.0052,401.38561 585.36957,400.72151 585.74508,399.91686 C 586.2889,398.75143 586.57629,398.75142 587.12008,399.91686 C 588.03217,401.87134 591.08092,401.76981 593.37008,399.69811 C 594.39425,398.77111 598.30756,397.31822 602.08883,396.47936 C 613.69206,393.90517 611.67359,391.44164 596.33883,389.4481 C 589.74053,388.59031 584.61799,388.12332 580.18258,388.10435 z M 24.120114,396.82311 C 22.770714,396.81791 21.012214,396.89649 18.682614,396.97936 L 9.1826143,397.29186 L 7.4013143,402.19811 C 5.6671143,406.96368 5.6946143,407.14307 8.4638143,409.44811 C 10.024514,410.74718 11.897314,411.80178 12.620114,411.82311 C 13.342814,411.84443 14.579214,412.6762 15.401314,413.66686 C 16.223514,414.65754 17.646414,415.20403 18.557614,414.85436 C 19.468814,414.50471 20.899814,414.19811 21.713814,414.19811 C 24.066314,414.19811 30.526314,407.41784 30.526314,404.94811 C 30.526314,403.71344 30.005114,401.33709 29.370114,399.66686 C 28.522514,397.43768 28.168114,396.83872 24.120114,396.82311 z M 300.90131,435.16686 C 300.26031,435.16686 299.74511,435.71337 299.74511,436.35436 C 299.74501,436.99535 300.26031,437.51061 300.90131,437.51061 C 301.54231,437.51062 302.05761,436.99535 302.05761,436.35436 C 302.05761,435.71337 301.54231,435.16686 300.90131,435.16686 z M 216.49511,438.66686 C 213.37001,438.66687 212.42011,440.36814 214.96381,441.38561 C 216.97871,442.19162 218.51101,441.71268 219.05761,440.07311 C 219.33441,439.24289 218.30121,438.66686 216.49511,438.66686 z M 194.90131,444.51061 C 191.48021,444.51062 189.58471,445.85018 190.99511,447.26061 C 191.93311,448.19858 194.11031,448.20699 196.49511,447.29186 C 199.51571,446.13274 198.58041,444.51061 194.90131,444.51061 z M 327.68258,449.16686 C 325.73202,449.16686 323.05758,452.93615 323.05758,455.66686 C 323.05761,456.95104 325.60416,455.93278 327.71383,453.82311 C 330.69009,450.84683 330.67727,449.16686 327.68258,449.16686 z"
         style="fill:#cdcdcd;fill-opacity:1;fill-rule:nonzero;stroke-width:19.89999961999999900;stroke-miterlimit:4;stroke-dasharray:none" />
    </g>
  </g>
</svg>
